<svg width="420" height="110" viewBox="0 0 420 110" fill="none" xmlns="http://www.w3.org/2000/svg">
  <g stroke="#FFFFFF" stroke-linecap="round" stroke-linejoin="round" stroke-width="7.5">
    <path d="M58.75 17.95C46.8 11.25 31.35 12.15 20.3 21.35C12.95 27.5 8.35 36.7 8.35 46.85C8.35 56.1 11.85 64.95 18.35 71.45C17.45 75.1 17.45 78.85 18.35 82.5C20.2 95.4 31.2 105.1 44.6 106.95C48.25 112.45 55.35 115.85 62.6 115.85C77.15 115.85 89.05 104 89.05 89.45V40.4C89.05 27.4 78.45 16.85 65.45 16.85C63.2 16.85 60.95 17.2 58.75 17.95Z"/>
    <path d="M63.55 19.85C74.6 26.05 81.15 37.2 81.15 49.2V78.35C81.15 90.4 74.55 101.5 63.55 107.75"/>
    <path d="M24.95 36.8C34.95 36.8 44.15 41.2 50.5 48.7"/>
    <path d="M20.2 57.35C31.15 57.35 40.15 60.9 46.5 68.45"/>
    <path d="M27.7 78.75C38.75 78.75 46.9 84.2 51.55 94.3"/>
    <path d="M89.95 36.05H108.45L117.65 26.85"/>
    <path d="M91.8 62.45H112.15"/>
    <path d="M89.95 79.65H104.75L114.95 89.85"/>
    <path d="M84.45 94.1H96.45L105.65 103.3"/>
    <circle cx="117.65" cy="26.85" r="7.2"/>
    <circle cx="112.15" cy="62.45" r="7.2"/>
    <circle cx="114.95" cy="89.85" r="7.2"/>
    <circle cx="105.65" cy="103.3" r="7.2"/>
  </g>
  <text x="142" y="72" fill="#FFFFFF" font-family="Inter, Arial, Helvetica, sans-serif" font-size="54" font-weight="600" letter-spacing="-3.2">Savant</text>
</svg>
